<?xml version="1.0" standalone="no"?>
<!DOCTYPE svg PUBLIC "-//W3C//DTD SVG 20010904//EN"
 "http://www.w3.org/TR/2001/REC-SVG-20010904/DTD/svg10.dtd">
<svg version="1.0" xmlns="http://www.w3.org/2000/svg"
 width="700.000000pt" height="700.000000pt" viewBox="0 0 700.000000 700.000000"
 preserveAspectRatio="xMidYMid meet">
<metadata>
Created by potrace 1.14, written by Peter Selinger 2001-2017
</metadata>
<g transform="translate(0.000000,700.000000) scale(0.100000,-0.100000)"
fill="#000000" stroke="none">
<path d="M3327 5584 c-1 -1 -38 -4 -82 -8 -369 -28 -741 -155 -1058 -359 -46
-30 -93 -62 -103 -70 -10 -9 -53 -42 -94 -75 -41 -33 -110 -94 -153 -136 -48
-46 -75 -67 -70 -53 4 12 8 56 8 97 -1 84 -23 139 -78 194 -70 69 -128 90
-252 87 -249 -6 -457 -57 -672 -165 -344 -172 -598 -467 -696 -806 -34 -117
-38 -146 -42 -290 -5 -203 30 -358 122 -545 111 -223 294 -418 514 -548 161
-95 293 -146 504 -193 28 -7 113 -6 123 0 5 3 28 -40 51 -95 118 -277 264
-494 470 -700 191 -191 365 -316 596 -430 228 -112 483 -192 685 -215 25 -3
68 -9 95 -14 64 -11 411 -10 490 0 33 5 78 11 100 14 44 6 87 13 125 22 14 3
36 8 50 10 50 10 137 34 220 62 588 201 1061 620 1314 1166 25 54 51 116 57
137 l12 38 61 0 c192 -2 545 143 746 307 42 34 177 168 205 204 181 229 273
481 273 750 1 327 -131 627 -384 876 -126 123 -305 239 -478 308 -79 31 -267
81 -341 90 -27 4 -66 9 -85 11 -19 2 -79 5 -132 6 -84 1 -105 -3 -151 -24
-105 -48 -167 -135 -173 -243 -1 -33 1 -77 5 -96 8 -34 7 -33 -72 43 -283 278
-652 482 -1048 579 -64 16 -141 31 -169 35 -29 4 -61 8 -70 10 -61 12 -412 28
-423 19z m388 -594 c146 -26 142 -25 261 -65 585 -195 1000 -673 1099 -1265
24 -143 24 -354 0 -495 -119 -698 -709 -1248 -1430 -1333 -80 -9 -324 -9 -405
1 -744 86 -1342 657 -1440 1377 -13 92 -16 309 -6 377 4 23 9 55 11 70 49 359
270 739 569 979 238 192 571 335 836 360 36 4 67 8 70 11 13 12 344 -2 435
-17z m-2159 -393 c-197 -295 -309 -597 -351 -947 -4 -30 -9 -117 -10 -193 -2
-77 -5 -141 -7 -143 -2 -2 -28 6 -57 17 -225 85 -392 235 -469 421 -56 134
-62 268 -18 397 36 107 81 176 176 271 101 100 198 159 339 206 112 38 136 42
256 49 104 7 192 22 200 36 4 5 10 9 15 9 4 0 -29 -55 -74 -123z m3721 108
c33 -17 66 -22 188 -29 232 -15 430 -96 584 -241 356 -334 262 -825 -204
-1063 -63 -32 -146 -65 -150 -60 -2 2 -5 75 -9 163 -3 88 -7 171 -10 185 -2
14 -10 59 -16 100 -30 193 -95 393 -190 585 -77 155 -104 200 -197 328 -19 26
-33 47 -30 47 2 0 18 -7 34 -15z"/>
<path d="M2550 3281 c-158 -50 -245 -199 -205 -352 24 -95 72 -152 165 -196
l55 -26 850 -1 850 -1 58 29 c218 111 218 416 -1 523 l-57 28 -845 2 c-465 1
-856 -2 -870 -6z"/>
</g>
</svg>
